<?xml version="1.0" encoding="UTF-8"?>
<svg id="Layer_1" xmlns="http://www.w3.org/2000/svg" version="1.1" viewBox="0 0 849.98 256.61">
  <!-- Generator: Adobe Illustrator 29.0.1, SVG Export Plug-In . SVG Version: 2.1.0 Build 192)  -->
  <defs>
    <style>
      .st0 {
        fill: none;
        stroke: #6D7275;
        stroke-miterlimit: 10;
        stroke-width: 2.5px;
      }
    </style>
  </defs>
  <path id="keyline_2.5pt" class="st0" d="M1,256.61v-52.56h1.17s25.33.48,25.83,0,.74-8.52,2-8.85c1.44-.38,19.9-.5,20.62-1.33.72-.83-.55-9.64.55-10.3,1.11-.67,32.92,2.1,32.92,2.1,1.33.55.22,14.63.89,14.63h7.98c1.35,1.77,2.77-101.01,2.33-103.89,0,0-.27-3.33-1.39-5.99-1.08-2.55-9.22-19.45-3.49-26.01,4.51-5.15,4.76-6.14,5.62-8.57,3.33-9.31,3.24-52.79,3.33-54.79,0,0,0-.05.1-.05s.1.05.1.05c.08,2,0,45.47,3.33,54.79.87,2.43,1.12,3.42,5.62,8.57,5.74,6.56-2.41,23.46-3.49,26.01-1.12,2.66-1.39,5.99-1.39,5.99-.42,2.71-.08,89.17,2.98,103.27.1.45.35.91.87.87,1.27-.08,2.92.24,2.89-.05-.04-.38-.27-2.46.88-3.45,1.15-.98,2.23-1.71,9.62-1.2,2.2.15,1.8-.44,1.86-2.3,0,0-.24-4.43.47-4.82.71-.38,5.88-.01,6.42-.1.76-.12,3.35-.25,3.79-4.18.44-3.94-1.37-37.65-.45-40.69.86-2.85,2.77-5.99,10.53-5.76,7.76.22,17.39,3.77,18.76,4.54,1.08.61,2.82,2.44,2.91,4.68.22,5.63-.74,55.48.5,56.39,1.24.91,5.1.75,5.54-.33.59-1.43.19-2.52,1.19-2.97,1-.44,6.51.14,7.29-.86.78-1,.63-7.16,1.63-8.72,1-1.55,11.07-5.19,11.95-5.31,1.22-.17,10.09,3.1,11.86,4.77,1.77,1.66,1.11,4.88,1.66,5.32s6.21-.33,6.76.22c.55.55,1.44,6.76,3.21,6.65,1.77-.11,2-1,2-3.21s-.41-42.63-.11-45.11c.31-2.57,15.02-5.87,18.23-5.76s5.98,3.27,6.2,5.05c.22,1.77-.05,38.41.62,39.18.67.78,6.26-.11,7.81.33s2.93,1.55,3.71,2.66c.78,1.11.49,5.6,1.04,6.04s9.38,2.7,9.94,2.05c.55-.64.58-5.07.66-6.22.11-1.77-.66-9.75,0-10.3.67-.55,6.31-.43,7.75-.87s2.33-1.68,2.33-3.34-.4-82.69-.11-83.74c.17-.61,2.12,0,2.34-.45.22-.44.76-3.82,1.98-4.26,1.22-.44,15.1-.89,17.53.02,1.81.68,4.42,3.3,4.42,6.96s-.23,8.45,2.04,8.56c.85.04,2.03.33,2.7,1.4,1.19,1.91-.96,82.46,1.58,90.87.27.88.86,1.44,1.99,1.43,1.27,0,7.32.53,7.52-.33.22-.9.37-6.76,1.04-7.32.67-.55,5.52-.05,7.19-.94,1.66-.89,1.32-2.12,1.32-4.12s-.5-78.46,0-79.26c1.19-1.91,4.06-1.34,4.32-2.55.31-1.45.25-7.65.72-9.53.32-1.29,2.13-5.35,5.9-5.57,3.77-.22,14.11-.61,15.99.28s1.33,4.13,2.11,4.46c.78.33,1.72-.49,2.16.53.53,1.22-.65,88.3.42,90.01.69,1.11,5.93.47,8.37.86,3.52.56,10.14,2.88,10.23,3.99.08,1.02-.65,7.61.39,7.57s2.05.19,2.38-.36c.33-.55,2.74-9.48,3.74-9.81,1-.33,4.63.28,5.74.5,1.11.22,4.41.97,5.96,1.08s2.4-.56,2.6-1.77c.26-1.57-.23-24.3.43-26.3.66-2,2.15-3.6,5.48-4.49,3.52-.94,14.78-.13,16.11.21,1.33.33,4.22,2.76,4.56,3.76s.05,37.82.51,38.71c.55,1.07,2.33.75,3.44.75s3.69-.31,3.69-2.31-.25-53.06.02-54.42,2.97-1.78,5.49-1.89c1.6-.07,15.37-.03,17.48.42,2.11.44,2.92,1.47,2.92,2.69s-.01,32.84.44,34.14c.29.82,1.15,2.01,3.37.9s22.68-13.9,24.23-14.53c1.45-.6,2.99.62,4.07,1.32.79.51,18.71,12.76,19.09,13.2,1.43,1.64-3.09.8-3.12,1.37,0,0-.11,14.52.11,15.19,0,0,6.34,3.64,8.02,3.74,1.97.12,3.82-.04,4.57-.67s2.49-2,2.62-2.66-.21-1.91-.67-3.12-.57-2.99.69-3.7,3.02-.76,4.92-1.58c1.05-.46,1.8-2.04,2.83-3.01s1.2-.98,3.42-.87c1.84.09,2.38-1.03,2.57-3.01.17-1.75-.01-2.6-1.14-4.09-1.56-2.07-2.99-3.95-3.49-3.48-.52.5-.64.58-.91,3.19s-.9,4.64.58,6.57c.61.79-.73,1-1.52,1-1.66,0-1.79-2.29-1.94-3.39-.18-1.28-.47-4.65-.49-5.95-.02-.9.05-4.43,1.41-5.71,1.27-1.19,4.24-2.16,5.43-3.63.73-.9,1.22-1.52.67-3.77s-.65-5.17-.04-7.03,3.31-6.16,3.67-7.66.17-3.33.44-3.33h.16c.28,0,.08,1.83.44,3.33s3.06,5.8,3.67,7.66.52,4.79-.04,7.03-.06,2.87.67,3.77c1.19,1.47,4.16,2.44,5.43,3.63,1.36,1.27,1.43,4.81,1.41,5.71-.03,1.3-.31,4.67-.49,5.95-.16,1.1-.28,3.39-1.94,3.39-.8,0-2.13-.21-1.52-1,1.48-1.93.86-3.96.58-6.57s-.39-2.69-.91-3.19c-.49-.47-1.93,1.41-3.49,3.48-1.13,1.49-1.31,2.34-1.14,4.09.19,1.98.72,3.1,2.57,3.01,2.22-.11,2.39-.1,3.42.87s1.77,2.55,2.83,3.01c1.9.82,3.66.87,4.92,1.58s1.15,2.49.69,3.7-.79,2.45-.67,3.12,1.87,2.04,2.62,2.66,2.46.56,4.57.67c0,0,21.49,0,22.01,0,1.98,0,3.82-.04,4.57-.67s2.49-2,2.62-2.66-.21-1.91-.67-3.12-.57-2.99.69-3.7,3.02-.76,4.92-1.58c1.05-.46,1.8-2.04,2.83-3.01s1.2-.98,3.42-.87c1.84.09,2.38-1.03,2.57-3.01.17-1.75-.01-2.6-1.14-4.09-1.56-2.07-2.99-3.95-3.49-3.48-.52.5-.64.58-.91,3.19s-.9,4.64.58,6.57c.61.79-.73,1-1.52,1-1.66,0-1.79-2.29-1.94-3.39-.18-1.28-.47-4.65-.49-5.95-.02-.9.05-4.43,1.41-5.71,1.27-1.19,4.24-2.16,5.43-3.63.73-.9,1.22-1.52.67-3.77s-.65-5.17-.04-7.03,3.31-6.16,3.67-7.66.17-3.33.44-3.33h.16c.28,0,.08,1.83.44,3.33s3.06,5.8,3.67,7.66.52,4.79-.04,7.03-.06,2.87.67,3.77c1.19,1.47,4.16,2.44,5.43,3.63,1.36,1.27,1.43,4.81,1.41,5.71-.03,1.3-.31,4.67-.49,5.95-.16,1.1-.28,3.39-1.94,3.39-.8,0-2.13-.21-1.52-1,1.48-1.93.86-3.96.58-6.57s-.39-2.69-.91-3.19c-.49-.47-1.93,1.41-3.49,3.48-1.13,1.49-1.31,2.34-1.14,4.09.19,1.98.72,3.1,2.57,3.01,2.22-.11,2.39-.1,3.42.87s1.77,2.55,2.83,3.01c1.9.82,3.66.87,4.92,1.58s1.15,2.49.69,3.7-.79,2.45-.67,3.12,1.87,2.04,2.62,2.66,2.38.56,4.57.67c0,0,21.24,0,22.12,0,1.98,0,3.82-.04,4.57-.67s2.49-2,2.62-2.66-.21-1.91-.67-3.12-.57-2.99.69-3.7,3.02-.76,4.92-1.58c1.05-.46,1.8-2.04,2.83-3.01s1.2-.98,3.42-.87c1.84.09,2.38-1.03,2.57-3.01.17-1.75-.01-2.6-1.14-4.09-1.56-2.07-2.99-3.95-3.49-3.48-.52.5-.64.58-.91,3.19s-.9,4.64.58,6.57c.61.79-.73,1-1.52,1-1.66,0-1.79-2.29-1.94-3.39-.18-1.28-.47-4.65-.49-5.95-.02-.9.05-4.43,1.41-5.71,1.27-1.19,4.24-2.16,5.43-3.63.73-.9,1.22-1.52.67-3.77s-.65-5.17-.04-7.03,3.31-6.16,3.67-7.66.17-3.33.44-3.33h.16c.28,0,.08,1.83.44,3.33s3.06,5.8,3.67,7.66.52,4.79-.04,7.03-.06,2.87.67,3.77c1.19,1.47,4.16,2.44,5.43,3.63,1.36,1.27,1.43,4.81,1.41,5.71-.03,1.3-.31,4.67-.49,5.95-.16,1.1-.28,3.39-1.94,3.39-.8,0-2.13-.21-1.52-1,1.48-1.93.86-3.96.58-6.57s-.39-2.69-.91-3.19c-.49-.47-1.93,1.41-3.49,3.48-1.13,1.49-1.31,2.34-1.14,4.09.19,1.98.72,3.1,2.57,3.01,2.22-.11,2.39-.1,3.42.87s1.77,2.55,2.83,3.01c1.9.82,3.66.87,4.92,1.58s1.15,2.49.69,3.7-.79,2.45-.67,3.12,1.87,2.04,2.62,2.66,2.45.56,4.57.67c0,0,16.48,0,17.48,0,1.98,0,3.82-.04,4.57-.67s2.49-2,2.62-2.66-.21-1.91-.67-3.12-.57-2.99.69-3.7,3.02-.76,4.92-1.58c1.05-.46,1.8-2.04,2.83-3.01s1.2-.98,3.42-.87c1.84.09,2.38-1.03,2.57-3.01.17-1.75-.01-2.6-1.14-4.09-1.56-2.07-2.99-3.95-3.49-3.48-.52.5-.64.58-.91,3.19s-.9,4.64.58,6.57c.61.79-.73,1-1.52,1-1.66,0-1.79-2.29-1.94-3.39-.18-1.28-.47-4.65-.49-5.95-.02-.9.05-4.43,1.41-5.71,1.27-1.19,4.24-2.16,5.43-3.63.73-.9,1.22-1.52.67-3.77s-.65-5.17-.04-7.03,3.31-6.16,3.67-7.66.17-3.33.44-3.33h.16c.28,0,.08,1.83.44,3.33s3.06,5.8,3.67,7.66.52,4.79-.04,7.03-.06,2.87.67,3.77c1.19,1.47,4.16,2.44,5.43,3.63,1.36,1.27,1.43,4.81,1.41,5.71-.03,1.3-.31,4.67-.49,5.95-.16,1.1-.28,3.39-1.94,3.39-.8,0-2.13-.21-1.52-1,1.48-1.93.86-3.96.58-6.57s-.39-2.69-.91-3.19c-.49-.47-1.93,1.41-3.49,3.48-1.13,1.49-1.31,2.34-1.14,4.09.19,1.98.72,3.1,2.57,3.01,2.22-.11,2.39-.1,3.42.87s1.77,2.55,2.83,3.01c1.9.82,3.66.87,4.92,1.58s1.15,2.49.69,3.7-.79,2.45-.67,3.12,1.87,2.04,2.62,2.66,2.24.51,4.57.67c0,0,20.91,0,22.29,0,1.98,0,3.82-.04,4.57-.67s2.49-2,2.62-2.66-.21-1.91-.67-3.12-.57-2.99.69-3.7,3.02-.76,4.92-1.58c1.05-.46,1.8-2.04,2.83-3.01s1.2-.98,3.42-.87c1.84.09,2.38-1.03,2.57-3.01.17-1.75-.01-2.6-1.14-4.09-1.56-2.07-2.99-3.95-3.49-3.48-.52.5-.64.58-.91,3.19s-.9,4.64.58,6.57c.61.79-.73,1-1.52,1-1.66,0-1.79-2.29-1.94-3.39-.18-1.28-.47-4.65-.49-5.95-.02-.9.05-4.43,1.41-5.71,1.27-1.19,4.24-2.16,5.43-3.63.73-.9,1.22-1.52.67-3.77s-.65-5.17-.04-7.03,3.31-6.16,3.67-7.66.17-3.33.44-3.33h.16c.28,0,.08,1.83.44,3.33s3.06,5.8,3.67,7.66.52,4.79-.04,7.03-.06,2.87.67,3.77c1.19,1.47,4.16,2.44,5.43,3.63,1.36,1.27,1.43,4.81,1.41,5.71-.03,1.3-.31,4.67-.49,5.95-.16,1.1-.28,3.39-1.94,3.39-.8,0-2.13-.21-1.52-1,1.48-1.93.86-3.96.58-6.57s-.39-2.69-.91-3.19c-.49-.47-1.93,1.41-3.49,3.48-1.13,1.49-1.31,2.34-1.14,4.09.19,1.98.72,3.1,2.57,3.01,2.22-.11,2.39-.1,3.42.87s1.77,2.55,2.83,3.01c1.9.82,3.66.87,4.92,1.58s1.15,2.49.69,3.7-.79,2.45-.67,3.12,1.87,2.04,2.62,2.66,2.6.76,4.57.67c2.47-.11,12.31,0,12.31,0v52.75"/>
</svg>